<svg width="1340" height="265" viewBox="0 0 1340 265" fill="none" xmlns="http://www.w3.org/2000/svg">
<g opacity="0.3">
<circle cx="914.74" cy="190.51" r="6" transform="rotate(-180 914.74 190.51)" fill="#FFCF72"/>
<ellipse opacity="0.3" cx="386.5" cy="158.5" rx="7.5" ry="7.5" transform="rotate(-180 386.5 158.5)" fill="#FFCF72"/>
<circle cx="81.9999" cy="193" r="10" transform="rotate(-180 81.9999 193)" fill="#FFCF72"/>
<circle cx="175.045" cy="3.69575" r="3.34771" transform="rotate(-180 175.045 3.69575)" fill="#FFCF72"/>
<circle cx="99.5711" cy="86.2744" r="6" transform="rotate(-180 99.5711 86.2744)" fill="#FF3489"/>
<circle cx="1326.75" cy="49.3572" r="12.5539" transform="rotate(-180 1326.75 49.3572)" fill="#FFCF72"/>
<ellipse cx="799.001" cy="224" rx="6" ry="6" transform="rotate(-180 799.001 224)" fill="#FFCF72"/>
<ellipse opacity="0.5" cx="303" cy="190" rx="12" ry="12" transform="rotate(-180 303 190)" fill="#FFCF72"/>
</g>
<g opacity="0.3">
<circle opacity="0.5" cx="1317.16" cy="196.909" r="6.69541" transform="rotate(-180 1317.16 196.909)" fill="#FF3489"/>
<circle cx="244.285" cy="246.425" r="17.5755" transform="rotate(-180 244.285 246.425)" fill="#FF3489"/>
<circle cx="1050.94" cy="142.491" r="3.34771" transform="rotate(-180 1050.94 142.491)" fill="#FF3489"/>
<circle cx="303.509" cy="137.106" r="6.69541" transform="rotate(-180 303.509 137.106)" fill="#FF3489"/>
<ellipse cx="1196" cy="127" rx="9" ry="9" transform="rotate(-180 1196 127)" fill="#FF3489"/>
</g>
<g opacity="0.3">
<ellipse opacity="0.5" cx="1199" cy="244" rx="9" ry="9" transform="rotate(-180 1199 244)" fill="#7737FF"/>
<ellipse opacity="0.3" cx="446" cy="239" rx="12" ry="12" transform="rotate(-180 446 239)" fill="#7737FF"/>
<ellipse cx="1270.5" cy="85.5" rx="17.5" ry="17.5" transform="rotate(-180 1270.5 85.5)" fill="#7737FF"/>
<circle cx="631.092" cy="194.732" r="8" transform="rotate(-180 631.092 194.732)" fill="#7737FF"/>
<circle cx="1076.84" cy="170.928" r="8" transform="rotate(-180 1076.84 170.928)" fill="#7737FF"/>
<circle opacity="0.5" cx="860.446" cy="209.47" r="12.5539" transform="rotate(-180 860.446 209.47)" fill="#7737FF"/>
<circle cx="166.855" cy="138.282" r="12" transform="rotate(-180 166.855 138.282)" fill="#7737FF"/>
</g>
<g opacity="0.3">
<circle cx="398.643" cy="214.345" r="6.69541" transform="rotate(-180 398.643 214.345)" fill="#00A8A8"/>
<circle cx="140.054" cy="134.052" r="24" transform="rotate(-180 140.054 134.052)" fill="#00A8A8"/>
<circle opacity="0.2" cx="186.686" cy="204.19" r="6.69541" transform="rotate(-180 186.686 204.19)" fill="#00A8A8"/>
<circle cx="352.035" cy="149.039" r="3.34771" transform="rotate(-180 352.035 149.039)" fill="#00A8A8"/>
<circle cx="230.853" cy="78.5468" r="3.34771" transform="rotate(-180 230.853 78.5468)" fill="#00A8A8"/>
<circle cx="1148.53" cy="187.702" r="3.34771" transform="rotate(-180 1148.53 187.702)" fill="#00A8A8"/>
<circle opacity="0.3" cx="1254.73" cy="197.142" r="12" transform="rotate(-180 1254.73 197.142)" fill="#00A8A8"/>
<ellipse opacity="0.3" cx="1052" cy="235" rx="30" ry="30" transform="rotate(-180 1052 235)" fill="#00A8A8"/>
<circle cx="1164.7" cy="91.6952" r="6.69541" transform="rotate(-180 1164.7 91.6952)" fill="#00A8A8"/>
<ellipse cx="9.49978" cy="18.5" rx="9.5" ry="9.5" transform="rotate(-180 9.49978 18.5)" fill="#00A8A8"/>
</g>
</svg>
